<?xml version="1.0" encoding="UTF-8"?>
<svg version="1.1" xmlns="http://www.w3.org/2000/svg" width="512" height="512">
<path d="M0 0 C168.96 0 337.92 0 512 0 C512 168.96 512 337.92 512 512 C343.04 512 174.08 512 0 512 C0 343.04 0 174.08 0 0 Z " fill="#222222" transform="translate(0,0)"/>
<path d="M0 0 C10.56 0 21.12 0 32 0 C32 14.19 32 28.38 32 43 C36.95 43.66 41.9 44.32 47 45 C51.38957687 46.13187074 55.63471113 47.30532014 59.9375 48.6875 C61.06067627 49.04271729 62.18385254 49.39793457 63.34106445 49.76391602 C94.92489631 59.96009225 125.40867772 79.74250813 145 107 C148.59924614 105.63981742 151.89201441 104.03292649 155.23828125 102.13671875 C156.22376953 101.57919922 157.20925781 101.02167969 158.22460938 100.44726562 C159.24361328 99.86654297 160.26261719 99.28582031 161.3125 98.6875 C162.31990234 98.11837891 163.32730469 97.54925781 164.36523438 96.96289062 C169.48915963 94.05543857 174.51605859 91.10698568 179.36791992 87.76098633 C181 87 181 87 184 88 C185.62573242 90.26904297 185.62573242 90.26904297 187.35546875 93.2421875 C187.97744141 94.30824219 188.59941406 95.37429687 189.24023438 96.47265625 C189.88283203 97.59542969 190.52542969 98.71820313 191.1875 99.875 C191.84169922 100.99003906 192.49589844 102.10507813 193.16992188 103.25390625 C198 111.60455227 198 111.60455227 198 115 C194.46255395 117.04564528 190.92452372 119.09027627 187.38598633 121.1340332 C186.18628732 121.82712481 184.98673882 122.520477 183.78735352 123.21411133 C176.89086729 127.20226724 169.98368094 131.16588945 163 135 C163.62618334 139.52778726 164.79095904 143.56946304 166.3125 147.875 C169.03165613 155.79309561 171.28103668 163.80193773 173 172 C173.17950195 172.85166748 173.35900391 173.70333496 173.54394531 174.58081055 C175.1766301 183.19475619 175.40113259 191.70461804 175.375 200.4375 C175.3737915 201.18666687 175.37258301 201.93583374 175.37133789 202.70770264 C175.28084289 223.44485214 170.75669578 241.20851609 163.67089844 260.67602539 C162.81509364 263.23736474 162.81509364 263.23736474 163 267 C165.08776971 268.77205144 165.08776971 268.77205144 167.8984375 270.2421875 C168.93613281 270.83386719 169.97382813 271.42554688 171.04296875 272.03515625 C172.14253906 272.64230469 173.24210937 273.24945313 174.375 273.875 C176.50810257 275.08021591 178.64091797 276.28594025 180.7734375 277.4921875 C181.81467773 278.07838867 182.85591797 278.66458984 183.92871094 279.26855469 C184.94223633 279.83993164 185.95576172 280.41130859 187 281 C187.98516602 281.55333008 188.97033203 282.10666016 189.98535156 282.67675781 C190.88995117 283.19850586 191.79455078 283.72025391 192.7265625 284.2578125 C193.93046631 284.94447998 193.93046631 284.94447998 195.15869141 285.64501953 C197 287 197 287 198 290 C196.96777344 292.40429687 196.96777344 292.40429687 195.359375 295.21875 C194.78316406 296.23324219 194.20695312 297.24773437 193.61328125 298.29296875 C192.99839844 299.35128906 192.38351562 300.40960938 191.75 301.5 C191.15058594 302.55832031 190.55117188 303.61664063 189.93359375 304.70703125 C185.02535717 313.2719585 185.02535717 313.2719585 182 316 C164 305.5 164 305.5 146 295 C142.444909 298.50384645 139.03772734 302.11197279 135.6875 305.8125 C134.22829385 307.40407526 132.76629395 308.99303242 131.30322266 310.58105469 C130.23084469 311.74865692 129.16696947 312.92406273 128.10546875 314.1015625 C106.29488248 337.24146215 70.83901684 355.70291479 39 359 C36.69 359 34.38 359 32 359 C32 373.52 32 388.04 32 403 C21.44 403 10.88 403 0 403 C0 388.48 0 373.96 0 359 C-2.31 359 -4.62 359 -7 359 C-46.35891739 352.98264372 -85.31798471 331.23506996 -109.16796875 299.01171875 C-111.24758296 296.72813385 -111.97474483 296.29645556 -115 296 C-117.50760718 296.96108157 -117.50760718 296.96108157 -120.0703125 298.53515625 C-121.53984375 299.37916992 -121.53984375 299.37916992 -123.0390625 300.24023438 C-124.05742188 300.84158203 -125.07578125 301.44292969 -126.125 302.0625 C-127.61773437 302.92391602 -127.61773437 302.92391602 -129.140625 303.80273438 C-133.07594433 306.08121234 -136.9981798 308.36016899 -140.83105469 310.80810547 C-141.70922852 311.3651416 -142.58740234 311.92217773 -143.4921875 312.49609375 C-144.26675293 313.00197021 -145.04131836 313.50784668 -145.83935547 314.02905273 C-148 315 -148 315 -150.12939453 314.89111328 C-152.55641921 313.73493473 -153.17783808 312.60605291 -154.4375 310.24609375 C-154.85773438 309.47330078 -155.27796875 308.70050781 -155.7109375 307.90429688 C-156.13632813 307.09025391 -156.56171875 306.27621094 -157 305.4375 C-157.42539063 304.65052734 -157.85078125 303.86355469 -158.2890625 303.05273438 C-160.95948703 298.08459794 -163.49857524 293.05496253 -166 288 C-154.05055232 280.91018915 -142.09827571 273.83366768 -130 267 C-130.58819533 263.32200752 -131.69303629 260.0072321 -133.01855469 256.53271484 C-136.92466673 246.22451879 -139.16683225 235.84777014 -141 225 C-141.226875 223.71351563 -141.45375 222.42703125 -141.6875 221.1015625 C-146.27588617 191.72314551 -140.07867563 162.258872 -129 135 C-130.04510742 134.60929321 -130.04510742 134.60929321 -131.11132812 134.21069336 C-134.28615112 132.88006902 -137.21264901 131.30640991 -140.21875 129.62890625 C-140.79911011 129.30591049 -141.37947021 128.98291473 -141.97741699 128.65013123 C-143.19844743 127.96988477 -144.41869109 127.28822432 -145.63818359 126.60522461 C-147.49282085 125.56652074 -149.34968572 124.53189878 -151.20703125 123.49804688 C-156.17639826 120.72681369 -161.13478426 117.95187176 -166 115 C-164.60582632 111.29102741 -162.92181521 107.92161688 -160.9609375 104.48046875 C-160.38085938 103.45888672 -159.80078125 102.43730469 -159.203125 101.38476562 C-158.29820312 99.80211914 -158.29820312 99.80211914 -157.375 98.1875 C-156.76398438 97.11306641 -156.15296875 96.03863281 -155.5234375 94.93164062 C-154.01844115 92.28613924 -152.51054209 89.6423375 -151 87 C-147.05218891 88.47586416 -143.45994928 90.31825803 -139.78125 92.37109375 C-139.20088989 92.69408951 -138.62052979 93.01708527 -138.02258301 93.34986877 C-136.80155257 94.03011523 -135.58130891 94.71177568 -134.36181641 95.39477539 C-132.50717915 96.43347926 -130.65031428 97.46810122 -128.79296875 98.50195312 C-119.57308522 103.64354302 -119.57308522 103.64354302 -116.23632812 105.71899414 C-114.14029786 107.1656822 -114.14029786 107.1656822 -112 107 C-110.90346294 105.71141407 -109.87577893 104.36429057 -108.875 103 C-86.92809882 75.03156636 -56.29919213 55.79904555 -22 47 C-21.03707031 46.71382812 -20.07414063 46.42765625 -19.08203125 46.1328125 C-12.47630775 44.17625124 -7.10329613 43.64575419 0 43 C0 28.81 0 14.62 0 0 Z " fill="#A8A8A8" transform="translate(240,55)"/>
<path d="M0 0 C33.89485656 4.51931421 62.14056618 19.23401782 83.8046875 45.94140625 C84.39636719 46.96041016 84.39636719 46.96041016 85 48 C83.7220314 51.8339058 82.52549332 52.10636815 79.03125 54.00390625 C77.99427979 54.57423584 76.95730957 55.14456543 75.88891602 55.73217773 C74.77057373 56.33618408 73.65223145 56.94019043 72.5 57.5625 C70.18543129 58.83454357 67.87162963 60.10798382 65.55859375 61.3828125 C63.86065674 62.31528809 63.86065674 62.31528809 62.12841797 63.26660156 C58.23288909 65.42504195 54.38846892 67.6586442 50.5625 69.9375 C40.07738453 76.1624221 29.502187 82.23085558 18.93212891 88.31005859 C16.38200036 89.77983293 13.83621413 91.25664261 11.29296875 92.73828125 C10.63514404 93.11968262 9.97731934 93.50108398 9.29956055 93.89404297 C7.64621536 94.8527185 5.99488336 95.81486378 4.34375 96.77734375 C2 98 2 98 0 98 C0 65.66 0 33.32 0 0 Z " fill="#232323" transform="translate(272,130)"/>
<path d="M0 0 C3.73255129 1.49302052 6.82962441 2.95145089 10.26171875 4.94921875 C11.28458984 5.5421875 12.30746094 6.13515625 13.36132812 6.74609375 C14.45896484 7.38675781 15.55660156 8.02742188 16.6875 8.6875 C17.84940348 9.3623338 19.01151671 10.03680656 20.17382812 10.7109375 C22.5872404 12.11107089 24.9997446 13.51275019 27.41162109 14.91552734 C32.93267049 18.12491256 38.46698539 21.31130412 44 24.5 C46.13549037 25.73164305 48.27090654 26.96341477 50.40625 28.1953125 C52.00919922 29.12005371 52.00919922 29.12005371 53.64453125 30.06347656 C56.59367557 31.76550019 59.54234625 33.46833867 62.49072266 35.17169189 C64.91047665 36.56958601 67.33047263 37.96706089 69.75048828 39.36450195 C71.46801052 40.35652324 73.18518052 41.34915429 74.90234375 42.34179688 C75.93488281 42.93798828 76.96742188 43.53417969 78.03125 44.1484375 C78.94455078 44.67614746 79.85785156 45.20385742 80.79882812 45.74755859 C82.17988691 46.53336511 83.57878495 47.28939248 85 48 C84.55814247 52.45090631 81.49938525 55.10563896 78.5625 58.1875 C78.01827393 58.76411377 77.47404785 59.34072754 76.91333008 59.93481445 C61.28744991 76.32315539 43.81175306 87.28655747 22.375 94.375 C21.63604492 94.62604492 20.89708984 94.87708984 20.13574219 95.13574219 C13.1632955 97.3178654 7.73740417 97.40481506 0 98 C0 65.66 0 33.32 0 0 Z " fill="#232323" transform="translate(272,284)"/>
<path d="M0 0 C3.67225376 1.98981151 7.33720155 3.99285303 11 6 C11.62729004 6.34321289 12.25458008 6.68642578 12.90087891 7.04003906 C23.19922502 12.68483421 33.37988927 18.51481615 43.51196289 24.45263672 C49.02995952 27.68603987 54.55619565 30.90367346 60.1015625 34.08984375 C60.98451996 34.59746498 60.98451996 34.59746498 61.88531494 35.11534119 C64.73783298 36.75485258 67.59163822 38.39202762 70.44726562 40.02612305 C75.40775522 42.87592277 80.3021818 45.73265932 85 49 C81.59166354 51.8455204 78.16533016 54.18211602 74.30078125 56.36328125 C73.18735352 56.99508301 72.07392578 57.62688477 70.92675781 58.27783203 C70.3385022 58.6089801 69.75024658 58.94012817 69.14416504 59.28131104 C66.63483426 60.69401158 64.13109703 62.11650093 61.62686157 63.53820801 C60.33106981 64.27366346 59.03498562 65.00860393 57.73861694 65.74304199 C51.39129625 69.33958154 45.06819447 72.97755618 38.75 76.625 C37.69844727 77.22997314 36.64689453 77.83494629 35.56347656 78.45825195 C30.64306076 81.29395731 25.73529158 84.14732214 20.86032104 87.06063843 C19.17383439 88.06842691 17.48488639 89.07209276 15.79589844 90.07568359 C13.68329712 91.33297169 11.57562237 92.59858512 9.47363281 93.87353516 C8.06549316 94.70957275 8.06549316 94.70957275 6.62890625 95.5625 C5.80463135 96.05878906 4.98035645 96.55507813 4.13110352 97.06640625 C2 98 2 98 -1 97 C-13.71759581 74.64566625 -13.00157938 41.27698862 -6.625 17.18652344 C-2.39774859 2.39774859 -2.39774859 2.39774859 0 0 Z " fill="#232323" transform="translate(139,207)"/>
<path d="M0 0 C0 32.34 0 64.68 0 98 C-28.84783302 98 -55.08977053 81.73759742 -75 62 C-78.94076901 57.89607814 -82.52029956 54.14340455 -85 49 C-76.33410754 43.59439243 -67.57625497 38.40814768 -58.6875 33.375 C-56.22301759 31.97430623 -53.7597745 30.57144366 -51.296875 29.16796875 C-50.68271225 28.81811417 -50.0685495 28.46825958 -49.43577576 28.10780334 C-43.41362716 24.67327453 -37.42201398 21.18715877 -31.4375 17.6875 C-29.9827124 16.83720215 -29.9827124 16.83720215 -28.49853516 15.96972656 C-26.59884566 14.85907942 -24.69926627 13.74824392 -22.79980469 12.63720703 C-18.22370154 9.961296 -13.64502968 7.28989041 -9.0625 4.625 C-8.25675537 4.15408936 -7.45101074 3.68317871 -6.62084961 3.19799805 C-1.11450386 0 -1.11450386 0 0 0 Z " fill="#222222" transform="translate(240,284)"/>
<path d="M0 0 C0 32.34 0 64.68 0 98 C-3.71229983 96.51508007 -6.90600693 95.03192692 -10.359375 93.09375 C-11.38345459 92.52019775 -12.40753418 91.94664551 -13.46264648 91.35571289 C-14.54747314 90.74332764 -15.6322998 90.13094238 -16.75 89.5 C-18.44008179 88.54951782 -18.44008179 88.54951782 -20.16430664 87.57983398 C-26.94485575 83.75581547 -33.69026529 79.87988707 -40.38452148 75.90698242 C-48.07105622 71.34758115 -55.82067984 66.89798454 -63.56616211 62.43969727 C-70.72530853 58.3176643 -77.86874032 54.170089 -85 50 C-83.23093086 46.23527649 -80.88028229 43.40045967 -78.0625 40.375 C-77.57233398 39.84793457 -77.08216797 39.32086914 -76.57714844 38.77783203 C-57.35369846 18.3552225 -29.23684312 0 0 0 Z " fill="#222222" transform="translate(240,130)"/>
<path d="M0 0 C2.79239678 6.04524197 4.66912237 12.16199877 6.1875 18.625 C6.35411133 19.32874756 6.52072266 20.03249512 6.69238281 20.75756836 C12.49884792 46.32330306 10.24535365 73.96154888 0 98 C-4.10897287 96.7423893 -7.65406986 95.22023808 -11.359375 93.05078125 C-12.88884766 92.16132813 -12.88884766 92.16132813 -14.44921875 91.25390625 C-15.53847656 90.61324219 -16.62773437 89.97257812 -17.75 89.3125 C-18.90720972 88.63743361 -20.06476857 87.96296538 -21.22265625 87.2890625 C-23.62570582 85.88984195 -26.0272392 84.48807065 -28.42773438 83.08447266 C-33.9378699 79.86550531 -39.47022487 76.68506273 -45 73.5 C-47.13545858 72.26699967 -49.27087497 71.03392627 -51.40625 69.80078125 C-55.43060354 67.47852537 -59.45846895 65.16259256 -63.49072266 62.85409546 C-65.9115662 61.46781169 -68.33107889 60.07921453 -70.75048828 58.69042969 C-72.46647617 57.70671796 -74.18439193 56.72637165 -75.90234375 55.74609375 C-76.93488281 55.153125 -77.96742188 54.56015625 -79.03125 53.94921875 C-79.94455078 53.42674561 -80.85785156 52.90427246 -81.79882812 52.3659668 C-84 51 -84 51 -86 49 C-73.7265818 41.82237651 -61.44238994 34.66442698 -49.125 27.5625 C-47.52736816 26.64126343 -47.52736816 26.64126343 -45.89746094 25.70141602 C-40.81821605 22.77380628 -35.73758049 19.84863136 -30.65493774 16.92692566 C-28.8749866 15.90350745 -27.09539331 14.87946987 -25.31591797 13.85522461 C-23.08650663 12.57221373 -20.85640624 11.29039912 -18.62548828 10.01000977 C-14.15816964 7.43822933 -9.72400008 4.85062365 -5.3828125 2.0703125 C-2 0 -2 0 0 0 Z " fill="#222222" transform="translate(374,207)"/>
<path d="M0 0 C0.33 0 0.66 0 1 0 C1 13.53 1 27.06 1 41 C-12.53 41 -26.06 41 -40 41 C-36.76284016 39.38142008 -33.61375469 38.05715856 -30.25 36.75 C-24.78388069 34.47853851 -20.44415797 31.88380762 -16 28 C-15.40703125 27.52304687 -14.8140625 27.04609375 -14.203125 26.5546875 C-6.56114327 19.82568589 -2.52693015 9.66396702 0 0 Z " fill="#000000" transform="translate(511,471)"/>
<path d="M0 0 C1.61857992 3.23715984 2.94284144 6.38624531 4.25 9.75 C6.52146149 15.21611931 9.11619238 19.55584203 13 24 C13.71542969 24.88945312 13.71542969 24.88945312 14.4453125 25.796875 C21.17431411 33.43885673 31.33603298 37.47306985 41 40 C41 40.33 41 40.66 41 41 C27.47 41 13.94 41 0 41 C0 27.47 0 13.94 0 0 Z " fill="#000000" transform="translate(0,471)"/>
<path d="M0 0 C13.53 0 27.06 0 41 0 C41 13.53 41 27.06 41 41 C39.38142008 37.76284016 38.05715856 34.61375469 36.75 31.25 C34.47853851 25.78388069 31.88380762 21.44415797 28 17 C27.52304687 16.40703125 27.04609375 15.8140625 26.5546875 15.203125 C19.82568589 7.56114327 9.66396702 3.52693015 0 1 C0 0.67 0 0.34 0 0 Z " fill="#000000" transform="translate(471,0)"/>
<path d="M0 0 C13.53 0 27.06 0 41 0 C37.76284016 1.61857992 34.61375469 2.94284144 31.25 4.25 C25.78388069 6.52146149 21.44415797 9.11619238 17 13 C16.40703125 13.47695312 15.8140625 13.95390625 15.203125 14.4453125 C7.56114327 21.17431411 3.52693015 31.33603298 1 41 C0.67 41 0.34 41 0 41 C0 27.47 0 13.94 0 0 Z " fill="#000000" transform="translate(0,0)"/>
</svg>
